<svg xmlns="http://www.w3.org/2000/svg" viewBox="0 0 58 58" fill="#43b0e6"><path d="M19.941 54.409a.99.99 0 0 1-.643-.268l-4.556-4.556c-.161-.161-.268-.375-.268-.643V9.97c0-1.501-1.233-2.734-2.734-2.734S9.006 8.47 9.006 9.97v27.177c0 2.519-2.037 4.556-4.556 4.556S0 39.667 0 37.148V.911A.94.94 0 0 1 .911 0H38.97a.94.94 0 0 1 .911.911v2.734h-1.823V1.823H1.823v35.379c0 1.501 1.233 2.734 2.734 2.734s2.734-1.233 2.734-2.734V9.97c0-2.519 2.037-4.556 4.556-4.556s4.556 2.037 4.556 4.556v38.595l3.645 3.645 3.002-3.002c.375-.375.911-.375 1.287 0l3.645 3.645-1.287 1.287-3.109-3.002-3.002 3.002a.99.99 0 0 1-.643.268z"/><path d="M12.704 39.882H4.556v1.823h8.148v-1.823zM29 29h-1.823v12.704H29V29zm-3.591 3.645h-1.823v9.059h1.823v-9.059zm-3.646-7.236H19.94v16.296h1.823V25.409zm32.646-9.113h-1.823V9.97c0-1.501-1.233-2.734-2.734-2.734H11.793V5.414h38.059c2.519 0 4.556 2.037 4.556 4.556v6.325zM57.142 58H31.734a.94.94 0 0 1-.911-.911V19.03a.94.94 0 0 1 .911-.911h25.409a.94.94 0 0 1 .911.911v38.059c-.054.536-.429.911-.911.911zm-24.497-1.769h23.586v-36.29H32.645v36.29zm21.764-29.054H34.468V29h19.941v-1.823zm0-5.414H34.468v1.822h19.941v-1.822zM38.97 39.882h-3.591a.94.94 0 0 1-.911-.911V35.38a.94.94 0 0 1 .911-.911h3.645a.94.94 0 0 1 .911.911v3.645a.94.94 0 0 1-.965.858zm-2.68-1.823h1.769v-1.822h-1.822v1.822h.054zm9.971 1.823h-3.645a.94.94 0 0 1-.911-.911V35.38a.94.94 0 0 1 .911-.911h3.645a.94.94 0 0 1 .911.911v3.645c-.054.483-.429.858-.911.858zm-2.734-1.823h1.823v-1.822h-1.823v1.822zm9.97 1.823h-3.645a.94.94 0 0 1-.911-.911V35.38a.94.94 0 0 1 .911-.911h3.645a.94.94 0 0 1 .911.911v3.645c0 .483-.429.858-.911.858zm-2.734-1.823h1.823v-1.822h-1.823v1.822zM38.97 47.118h-3.591a.94.94 0 0 1-.911-.911v-3.645a.94.94 0 0 1 .911-.911h3.645a.94.94 0 0 1 .911.911v3.645c-.054.536-.429.911-.965.911zm-2.68-1.769h1.769v-1.823h-1.822v1.823h.054zm9.971 1.769h-3.645a.94.94 0 0 1-.911-.911v-3.645a.94.94 0 0 1 .911-.911h3.645a.94.94 0 0 1 .911.911v3.645c-.054.536-.429.911-.911.911zm-2.734-1.769h1.823v-1.823h-1.823v1.823zm9.97 1.769h-3.645a.94.94 0 0 1-.911-.911v-3.645a.94.94 0 0 1 .911-.911h3.645a.94.94 0 0 1 .911.911v3.645c0 .536-.429.911-.911.911zm-2.734-1.769h1.823v-1.823h-1.823v1.823zm-11.793 9.06h-3.591a.94.94 0 0 1-.911-.911v-3.645a.94.94 0 0 1 .911-.911h3.645a.94.94 0 0 1 .911.911v3.645c-.054.483-.429.911-.965.911zm-2.68-1.823h1.769v-1.823h-1.822v1.823h.054zm9.971 1.823h-3.645a.94.94 0 0 1-.911-.911v-3.645a.94.94 0 0 1 .911-.911h3.645a.94.94 0 0 1 .911.911v3.645c-.054.483-.429.911-.911.911zm-2.734-1.823h1.823v-1.823h-1.823v1.823zm9.97 1.823h-3.645a.94.94 0 0 1-.911-.911v-3.645a.94.94 0 0 1 .911-.911h3.645a.94.94 0 0 1 .911.911v3.645a.94.94 0 0 1-.911.911zm-2.734-1.823h1.823v-1.823h-1.823v1.823zm3.592-21.763h-5.414v1.822h5.414v-1.822zm-1.769-6.326h-1.823v1.823h1.823v-1.823zm-3.645 0h-1.823v1.823h1.823v-1.823zm-3.592 0h-1.822v1.823h1.822v-1.823zm-3.645 0h-1.822v1.823h1.822v-1.823zM29 43.527h-9.059v1.823H29v-1.823zm0-23.586h-8.148a.94.94 0 0 1-.911-.911v-7.237a.94.94 0 0 1 .911-.911H48.03a.94.94 0 0 1 .911.911v4.556h-1.823v-3.645H21.763v5.414H29v1.822zm3.645-5.414h-9.059v1.822h9.059v-1.822z"/></svg>